# xmcd
# 
# Track frame offsets:
#     150
#     14557
#     33873
#     52681
#     68005
#     89939
#     108073
#     129629
#     146427
#     166098
#     185593
#     200721
#     215348
# 
# Disc length: 3114
# 
# Revision: 7
# Processed by: cddbd v1.5.2PL0 Copyright (c) Steve Scherf et al.
# Submitted via: fre:ac v1.0.17
# 
DISCID=b30c280d
DTITLE=Montgomery Gentry - Something To Be Proud Of
DYEAR=2005
DGENRE=Country
TTITLE0=She Don't Tell Me To
TTITLE1=Something To Be Proud Of
TTITLE2=Gone
TTITLE3=If You Ever Stop Loving Me
TTITLE4=Hell Yeah
TTITLE5=Speed
TTITLE6=My Town
TTITLE7=Didn't I
TTITLE8=She Couldn't Change Me
TTITLE9=Daddy Won't Sell The Farm
TTITLE10=Lonely And Gone
TTITLE11=Hillbilly Shoes
TTITLE12=Merry Christmas From The Family
EXTD=YEAR: 2005Something To Be Proud Of: The Best Of 1999-2005
EXTT0=
EXTT1=
EXTT2=
EXTT3=
EXTT4=
EXTT5=
EXTT6=
EXTT7=
EXTT8=
EXTT9=
EXTT10=
EXTT11=
EXTT12=
PLAYORDER=
